HIERARCHY
ROOT Hips
{
	OFFSET 0.000000 0.000000 0.000000
	CHANNELS 6 Xposition Yposition Zposition Zrotation Yrotation Xrotation 
	JOINT LowerBack
	{
		OFFSET 0.000000 0.000000 0.000000
		CHANNELS 3 Zrotation Yrotation Xrotation
		JOINT Spine
		{
			OFFSET 0.028270 2.035590 -0.193380
			CHANNELS 3 Zrotation Yrotation Xrotation
			JOINT Spine1
			{
				OFFSET 0.056720 2.048850 -0.042750
				CHANNELS 3 Zrotation Yrotation Xrotation
				JOINT Neck
				{
					OFFSET 0.000000 0.000000 0.000000
					CHANNELS 3 Zrotation Yrotation Xrotation
					JOINT Neck1
					{
						OFFSET -0.054170 1.746240 0.172020
						CHANNELS 3 Zrotation Yrotation Xrotation
						JOINT Head
						{
							OFFSET 0.104070 1.761360 -0.123970
							CHANNELS 3 Zrotation Yrotation Xrotation
							End Site
							{
								OFFSET 0.000000 0.000000 0.000000
							}
						}
					}
				}
				JOINT LeftShoulder
				{
					OFFSET 0.000000 0.000000 0.000000
					CHANNELS 3 Zrotation Yrotation Xrotation
					JOINT LeftArm
					{
						OFFSET 3.362410 1.200890 -0.311210
						CHANNELS 3 Zrotation Yrotation Xrotation
						JOINT LeftForeArm
						{
							OFFSET 4.983000 -0.000000 -0.000000
							CHANNELS 3 Zrotation Yrotation Xrotation
							JOINT LeftHand
							{
								OFFSET 3.483560 -0.000000 -0.000000
								CHANNELS 3 Zrotation Yrotation Xrotation
								JOINT LeftFingerBase
								{
									OFFSET 0.000000 0.000000 0.000000
									CHANNELS 3 Zrotation Yrotation Xrotation
									JOINT LeftHandIndex1
									{
										OFFSET 0.715260 -0.000000 -0.000000
										CHANNELS 3 Zrotation Yrotation Xrotation
										End Site
										{
											OFFSET 0.000000 0.000000 0.000000
										}
									}
								}
								JOINT LThumb
								{
									OFFSET 0.000000 0.000000 0.000000
									CHANNELS 3 Zrotation Yrotation Xrotation
									End Site
									{
										OFFSET 0.000000 0.000000 0.000000
									}
								}
							}
						}
					}
				}
				JOINT RightShoulder
				{
					OFFSET 0.000000 0.000000 0.000000
					CHANNELS 3 Zrotation Yrotation Xrotation
					JOINT RightArm
					{
						OFFSET -3.136600 1.374050 -0.404650
						CHANNELS 3 Zrotation Yrotation Xrotation
						JOINT RightForeArm
						{
							OFFSET -5.241900 -0.000000 -0.000000
							CHANNELS 3 Zrotation Yrotation Xrotation
							JOINT RightHand
							{
								OFFSET -3.444170 -0.000000 -0.000000
								CHANNELS 3 Zrotation Yrotation Xrotation
								JOINT RightFingerBase
								{
									OFFSET 0.000000 0.000000 0.000000
									CHANNELS 3 Zrotation Yrotation Xrotation
									JOINT RightHandIndex1
									{
										OFFSET -0.622530 -0.000000 -0.000000
										CHANNELS 3 Zrotation Yrotation Xrotation
										End Site
										{
											OFFSET 0.000000 0.000000 0.000000
										}
									}
								}
								JOINT RThumb
								{
									OFFSET 0.000000 0.000000 0.000000
									CHANNELS 3 Zrotation Yrotation Xrotation
									End Site
									{
										OFFSET 0.000000 0.000000 0.000000
									}
								}
							}
						}
					}
				}
			}
		}
	}
}
}
MOTION
Frames: 14
Frame Time: 0.008333
7.011263 15.562990 1.158904 -138.057150 -85.215328 163.432356 0.235454 0.730535 8.217755 -0.561193 1.031392 -1.294440 -4.847042 1.022722 0.470451 9.005437 -9.913089 -10.704896 -1.387166 -0.032879 -1.226605 0.000000 0.000000 0.000000 0.649580 18.768428 3.795953 -74.980909 21.535334 15.068976 -1.836698 -54.554796 0.000362 -4.974336 4.532417 -0.196461 -0.003629 0.004328 -0.000000 0.000000 0.000000 0.000000 0.000000 0.000000 0.000000 5.079113 -2.641078 0.010614 56.829893 14.159409 10.454669 179.736903 85.317829 179.986328 -2.424071 4.040847 -0.096832 0.059098 -0.454455 -0.000000 0.000000 0.000000 0.000000 0.000000 0.000000 0.000000 
6.857297 15.531572 1.166664 -138.499631 -84.965993 163.619167 -0.085282 0.754082 8.301524 -0.645497 1.061501 -1.287382 -4.923825 1.054926 0.439600 9.172385 -9.904698 -10.718027 -1.401490 -0.033652 -1.230480 0.000000 0.000000 0.000000 0.702596 18.678621 3.818728 -74.946108 21.435779 15.065490 -1.872749 -53.941086 0.000079 -4.967232 4.594852 -0.198969 -0.004336 0.001967 -0.000000 0.000000 0.000000 0.000000 0.000000 0.000000 0.000000 5.289175 -2.603558 0.035706 57.048219 13.942047 10.675666 179.737361 85.386975 179.987002 -2.327253 4.040726 -0.092926 0.057343 -0.453968 -0.000000 0.000000 0.000000 0.000000 0.000000 0.000000 0.000000 
6.702579 15.503091 1.173354 -139.066305 -84.752148 163.940553 -0.430840 0.772307 8.377713 -0.735728 1.085357 -1.282676 -5.003934 1.080909 0.406180 9.334052 -9.890317 -10.725016 -1.419835 -0.034826 -1.232693 0.000000 0.000000 0.000000 0.757798 18.565952 3.839385 -74.880231 21.300559 15.050906 -1.909334 -53.345482 -0.000206 -4.952458 4.668332 -0.201676 -0.005275 -0.000250 -0.000000 0.000000 0.000000 0.000000 0.000000 0.000000 0.000000 5.512815 -2.565382 0.060279 57.326903 13.701272 10.879791 179.741892 85.542678 179.987595 -2.244245 4.045738 -0.089718 0.055775 -0.453251 -0.000000 0.000000 0.000000 0.000000 0.000000 0.000000 0.000000 
6.546928 15.477781 1.179367 -139.617855 -84.573741 164.263353 -0.785411 0.783793 8.440036 -0.828443 1.101359 -1.281290 -5.087121 1.098995 0.371344 9.485817 -9.870760 -10.723586 -1.442594 -0.036496 -1.232342 0.000000 0.000000 0.000000 0.807822 18.428933 3.855843 -74.784709 21.139368 15.015722 -1.945731 -52.779366 -0.000495 -4.928697 4.750881 -0.204282 -0.006426 -0.002297 -0.000000 0.000000 0.000000 0.000000 0.000000 0.000000 0.000000 5.748540 -2.529831 0.083879 57.660768 13.443237 11.070728 179.750933 85.794588 179.988124 -2.173637 4.055514 -0.087009 0.054404 -0.452171 -0.000000 0.000000 0.000000 0.000000 0.000000 0.000000 0.000000 
6.390445 15.455825 1.185221 -140.027500 -84.426993 164.462610 -1.132485 0.788173 8.484212 -0.919799 1.109113 -1.282163 -5.172013 1.108788 0.342679 9.625027 -9.850039 -10.717498 -1.469388 -0.038586 -1.230348 0.000000 0.000000 0.000000 0.859261 18.295248 3.867124 -74.665449 20.925520 14.982254 -1.982736 -52.225724 -0.000788 -4.893259 4.836765 -0.206485 -0.007901 -0.004106 -0.000000 0.000000 0.000000 0.000000 0.000000 0.000000 0.000000 5.995534 -2.502567 0.103416 58.039841 13.179973 11.250786 179.764926 86.148638 179.988597 -2.114078 4.068896 -0.084799 0.053180 -0.450584 -0.000000 0.000000 0.000000 0.000000 0.000000 0.000000 0.000000 
6.233249 15.437428 1.191132 -140.318443 -84.308267 164.559956 -1.467824 0.784880 8.510953 -1.008867 1.108143 -1.286167 -5.258752 1.109765 0.315778 9.748257 -9.823836 -10.700880 -1.500698 -0.041246 -1.224885 0.000000 0.000000 0.000000 0.896770 18.146743 3.871355 -74.520784 20.690969 14.922788 -2.018473 -51.715747 -0.001076 -4.843827 4.923492 -0.208086 -0.009582 -0.005673 -0.000000 0.000000 0.000000 0.000000 0.000000 0.000000 0.000000 6.251074 -2.480316 0.120572 58.462611 12.913125 11.421730 179.784030 86.611785 179.989043 -2.061892 4.087129 -0.082988 0.052084 -0.448448 -0.000000 0.000000 0.000000 0.000000 0.000000 0.000000 0.000000 
6.075471 15.422668 1.197474 -140.468482 -84.211400 164.534310 -1.783767 0.774887 8.520044 -1.093838 1.099508 -1.292961 -5.346390 1.102949 0.291817 9.853373 -9.792112 -10.673564 -1.536242 -0.044461 -1.215867 0.000000 0.000000 0.000000 0.917900 17.987854 3.867876 -74.355478 20.435369 14.834595 -2.052552 -51.251795 -0.001349 -4.780274 5.006900 -0.208785 -0.011441 -0.006958 -0.000000 0.000000 0.000000 0.000000 0.000000 0.000000 0.000000 6.512498 -2.463178 0.135227 58.922190 12.646490 11.582183 179.808335 87.186031 179.989497 -2.014412 4.110358 -0.081477 0.051079 -0.445717 -0.000000 0.000000 0.000000 0.000000 0.000000 0.000000 0.000000 
5.917511 15.411501 1.204727 -140.397846 -84.128642 164.306792 -2.067423 0.760257 8.510728 -1.171684 1.085341 -1.300981 -5.433135 1.090479 0.277423 9.939877 -9.758651 -10.641399 -1.575084 -0.048057 -1.205014 0.000000 0.000000 0.000000 0.932976 17.846894 3.857234 -74.178959 20.124068 14.743457 -2.086094 -50.808541 -0.001611 -4.703183 5.080476 -0.208382 -0.013563 -0.007875 -0.000000 0.000000 0.000000 0.000000 0.000000 0.000000 0.000000 6.777411 -2.453958 0.145205 59.407208 12.386649 11.726933 179.837698 87.867383 179.989912 -1.970491 4.137427 -0.080067 0.050117 -0.442346 -0.000000 0.000000 0.000000 0.000000 0.000000 0.000000 0.000000 
5.759631 15.403926 1.213001 -140.185705 -84.054532 163.958089 -2.322927 0.742513 8.485147 -1.243199 1.067261 -1.310516 -5.518319 1.073935 0.269255 10.007440 -9.719599 -10.602373 -1.616930 -0.052036 -1.191865 0.000000 0.000000 0.000000 0.935815 17.713975 3.839672 -73.993490 19.770763 14.633450 -2.118191 -50.399692 -0.001849 -4.613467 5.141445 -0.206776 -0.015858 -0.008397 -0.000000 0.000000 0.000000 0.000000 0.000000 0.000000 0.000000 7.042457 -2.447582 0.152328 59.915472 12.130549 11.850607 179.871955 88.653992 179.990350 -1.928335 4.169574 -0.078857 0.049189 -0.438395 -0.000000 0.000000 0.000000 0.000000 0.000000 0.000000 0.000000 
5.602450 15.399957 1.222364 -139.899119 -83.983816 163.554671 -2.553890 0.723677 8.445351 -1.308996 1.047375 -1.321387 -5.600895 1.055402 0.266038 10.056676 -9.672887 -10.557357 -1.661145 -0.056319 -1.176826 0.000000 0.000000 0.000000 0.927376 17.588376 3.816249 -73.804363 19.373640 14.500531 -2.148700 -50.025566 -0.002058 -4.512591 5.187448 -0.203868 -0.018291 -0.008487 -0.000000 0.000000 0.000000 0.000000 0.000000 0.000000 0.000000 7.304161 -2.439996 0.157597 60.443887 11.876033 11.945038 179.911051 89.541069 179.991037 -1.887553 4.206932 -0.077748 0.048287 -0.433936 -0.000000 0.000000 0.000000 0.000000 0.000000 0.000000 0.000000 
5.446471 15.399501 1.232757 -139.609085 -83.912254 163.170432 -2.766184 0.705769 8.392594 -1.370191 1.027775 -1.333625 -5.679826 1.036937 0.266254 10.088739 -9.616041 -10.507474 -1.707048 -0.060815 -1.160421 0.000000 0.000000 0.000000 0.909293 17.468628 3.788348 -73.615984 18.930688 14.340456 -2.177552 -49.686385 -0.002233 -4.402821 5.216824 -0.199859 -0.020829 -0.008103 -0.000000 0.000000 0.000000 0.000000 0.000000 0.000000 0.000000 7.559320 -2.426625 0.162260 60.990422 11.620024 12.001760 -0.046071 89.476761 -0.008771 -1.849225 4.249509 -0.076739 0.047430 -0.429056 -0.000000 0.000000 0.000000 0.000000 0.000000 0.000000 0.000000 
5.292240 15.402434 1.244098 -139.396572 -83.836428 162.888547 -2.967649 0.690631 8.328110 -1.428315 1.010387 -1.347373 -5.754146 1.020432 0.267984 10.105309 -9.546769 -10.453877 -1.753873 -0.065428 -1.143183 0.000000 0.000000 0.000000 0.883851 17.351352 3.757516 -73.432570 18.441382 14.147796 -2.204701 -49.382121 -0.002370 -4.286028 5.229406 -0.194846 -0.023442 -0.007215 -0.000000 0.000000 0.000000 0.000000 0.000000 0.000000 0.000000 7.804755 -2.403056 0.167801 61.554059 11.359571 12.012267 0.000962 88.404901 -0.008355 -1.815124 4.296814 -0.076031 0.046646 -0.423850 -0.000000 0.000000 0.000000 0.000000 0.000000 0.000000 0.000000 
5.140276 15.408624 1.256172 -139.331130 -83.753995 162.781317 -3.166243 0.679741 8.253040 -1.484965 0.996795 -1.362798 -5.823100 1.007441 0.269326 10.108168 -9.462798 -10.397793 -1.801021 -0.070074 -1.125667 0.000000 0.000000 0.000000 0.853893 17.232869 3.725298 -73.257589 17.905787 13.917403 -2.230043 -49.113308 -0.002465 -4.163486 5.225915 -0.188932 -0.026104 -0.005798 -0.000000 0.000000 0.000000 0.000000 0.000000 0.000000 0.000000 8.038291 -2.365095 0.175723 62.134551 11.092848 11.969136 0.051531 87.248481 -0.007978 -1.787906 4.347954 -0.075522 0.045977 -0.418408 0.000000 0.000000 0.000000 0.000000 0.000000 0.000000 0.000000 
4.991077 15.417845 1.268748 -139.467544 -83.663251 162.904447 -3.369061 0.673900 8.168970 -1.541504 0.987942 -1.379891 -5.885905 0.998883 0.268707 10.098841 -9.362657 -10.340367 -1.847805 -0.074663 -1.108360 0.000000 0.000000 0.000000 0.822179 17.109802 3.692993 -73.093744 17.324872 13.644222 -2.253434 -48.880787 -0.002517 -4.035483 5.208171 -0.182215 -0.028802 -0.003837 -0.000000 0.000000 0.000000 0.000000 0.000000 0.000000 0.000000 8.257524 -2.309916 0.187381 62.731671 10.819959 11.867653 0.105277 86.011037 -0.007660 -1.770431 4.401173 -0.075516 0.045464 -0.412789 0.000000 0.000000 0.000000 0.000000 0.000000 0.000000 0.000000 
